<?xml version="1.0" encoding="UTF-8" standalone="no"?>
<svg
   xmlns:dc="http://purl.org/dc/elements/1.1/"
   xmlns:cc="http://creativecommons.org/ns#"
   xmlns:rdf="http://www.w3.org/1999/02/22-rdf-syntax-ns#"
   xmlns:svg="http://www.w3.org/2000/svg"
   xmlns="http://www.w3.org/2000/svg"
   xmlns:sodipodi="http://sodipodi.sourceforge.net/DTD/sodipodi-0.dtd"
   xmlns:inkscape="http://www.inkscape.org/namespaces/inkscape"
   inkscape:version="1.0 (4035a4fb49, 2020-05-01)"
   sodipodi:docname="pdf.svg"
   height="24"
   preserveAspectRatio="xMidYMid"
   viewBox="0 0 18.375 24"
   width="18.375"
   version="1.1"
   id="svg14">
  <sodipodi:namedview
     inkscape:current-layer="g12"
     inkscape:window-maximized="0"
     inkscape:window-y="126"
     inkscape:window-x="2494"
     inkscape:cy="12.842672"
     inkscape:cx="12.15511"
     inkscape:zoom="18.270833"
     showgrid="false"
     id="namedview10"
     inkscape:window-height="924"
     inkscape:window-width="1332"
     inkscape:pageshadow="2"
     inkscape:pageopacity="0"
     guidetolerance="10"
     gridtolerance="10"
     objecttolerance="10"
     borderopacity="1"
     bordercolor="#666666"
     pagecolor="#ffffff" />
  <metadata
     id="metadata18">
    <rdf:RDF>
      <cc:Work
         rdf:about="">
        <dc:format>image/svg+xml</dc:format>
        <dc:type
           rdf:resource="http://purl.org/dc/dcmitype/StillImage" />
        <dc:title></dc:title>
      </cc:Work>
    </rdf:RDF>
  </metadata>
  <defs
     id="defs4">
    <style
       id="style2">
      .cls-1 {
        fill: #cb0606;
      }

      .cls-1, .cls-2, .cls-3 {
        fill-rule: evenodd;
      }

      .cls-2 {
        fill: #fb8d8d;
      }

      .cls-3 {
        fill: #fff;
      }
    </style>
  </defs>
  <g
     id="g12"
     transform="scale(0.375)">
    <path
       class="cls-1"
       d="M 49,16.842 V 58.947 C 49,61.738 46.73,64 43.931,64 H 5.069 C 2.269,64 0,61.738 0,58.947 V 5.053 C 0,2.262 2.269,0 5.069,0 h 27.034 z"
       id="path6" />
    <path
       class="cls-2"
       d="m 49,15.899 v 2.096 H 35.187 c -2.86,0 -4.179,-2.32 -4.179,-5.181 V 0 H 33.1 Z"
       id="path8" />
    <path
       style="stroke-width:1.5063"
       class="cls-3"
       d="m 44.574457,31.754445 c -0.656747,-0.216907 -1.289392,-0.326867 -1.899444,-0.326867 -0.692898,0 -1.168889,0.143099 -1.429479,0.429296 -0.259083,0.286197 -0.388625,0.792314 -0.388625,1.519856 v 1.390315 h 2.911679 v 2.79268 H 40.856909 V 49.060324 H 37.329155 V 37.559725 h -1.818104 v -2.79268 h 1.818104 V 33.37673 c 0,-1.771408 0.439839,-3.051763 1.319519,-3.84257 0.87968,-0.790808 2.20221,-1.185458 3.970606,-1.185458 0.829971,0 1.70965,0.112972 2.639037,0.340423 z M 29.797656,47.670009 c -0.656747,0.554318 -1.349645,0.995664 -2.078694,1.322531 -0.729049,0.326867 -1.557513,0.489548 -2.486901,0.489548 -1.804547,0 -3.185824,-0.649215 -4.142323,-1.947646 -0.958007,-1.299937 -1.435505,-3.13461 -1.435505,-5.505526 0,-2.425142 0.525699,-4.309523 1.578602,-5.654649 1.052905,-1.34362 2.530584,-2.016936 4.436053,-2.016936 0.674822,0 1.366214,0.13858 2.077188,0.415739 0.710973,0.277159 1.299936,0.629634 1.763877,1.055916 v -7.05852 h 3.527754 v 20.289858 h -3.240051 z m -0.287703,-8.938383 c -0.373563,-0.335905 -0.835997,-0.634152 -1.387302,-0.893236 -0.551305,-0.257577 -1.114662,-0.387119 -1.688563,-0.387119 -0.947462,0 -1.708144,0.406701 -2.282044,1.218597 -0.575406,0.813402 -0.861603,1.914507 -0.861603,3.304822 0,1.372239 0.234983,2.447737 0.703442,3.229506 0.469965,0.78177 1.196002,1.171902 2.181122,1.171902 0.582938,0 1.177926,-0.134061 1.78346,-0.402182 0.605531,-0.268122 1.123699,-0.598001 1.551488,-0.988133 z m -15.07806,9.824087 c -0.866123,0.617583 -1.899444,0.926375 -3.102978,0.926375 -1.5861345,0 -2.9387915,-0.494067 -4.0594785,-1.485212 v 6.445457 H 3.7416825 V 34.767045 h 3.253608 v 1.402365 c 0.656746,-0.563356 1.346632,-1.006208 2.071162,-1.328556 0.72453,-0.322348 1.5560075,-0.483523 2.4944325,-0.483523 1.813585,0 3.194862,0.635659 4.142325,1.908482 0.947462,1.271317 1.421946,3.119547 1.421946,5.54469 0,1.536426 -0.23197,2.889083 -0.697417,4.060984 -0.465447,1.171901 -1.129725,2.066643 -1.995846,2.684226 z m -1.667474,-9.940072 c -0.483522,-0.777251 -1.203534,-1.16437 -2.160034,-1.16437 -0.5739,0 -1.1643705,0.134061 -1.7699025,0.400676 -0.607039,0.268121 -1.128219,0.598001 -1.565046,0.988133 v 6.254156 c 0.373562,0.337412 0.835997,0.634153 1.387302,0.893236 0.551306,0.259084 1.117675,0.388626 1.7021195,0.388626 0.965538,0 1.729232,-0.41122 2.289576,-1.23366 0.560343,-0.82244 0.840515,-1.914507 0.840515,-3.276202 0,-1.390315 -0.242514,-2.473344 -0.72453,-3.250595 z"
       id="path10" />
  </g>
</svg>
